<svg width="141" height="141" viewBox="0 0 141 141" fill="none" xmlns="http://www.w3.org/2000/svg">
<g filter="url(#filter0_dd)">
<rect x="24" y="24" width="98" height="98" rx="30" fill="url(#paint0_linear)"/>
<rect x="25" y="25" width="96" height="96" rx="29" stroke="white" stroke-width="2"/>
</g>
<path d="M89.1199 94.2888C83.3427 86.5497 82.8475 87.0437 80.3715 80.9512C80.3715 80.9512 78.7891 77.2913 78.3082 75.4866C78.5224 75.6707 78.7465 75.8429 78.9795 76.0026C79.0158 76.0284 79.0585 76.0436 79.103 76.0464C79.1475 76.0493 79.1919 76.0396 79.2312 76.0186C79.2704 75.9976 79.303 75.9661 79.3253 75.9275C79.3475 75.889 79.3585 75.845 79.3569 75.8006C79.3754 75.813 79.3945 75.8243 79.4142 75.8346C79.5979 75.9356 79.752 75.6721 79.6089 75.5393C79.3243 75.2778 79.0992 74.9585 78.9487 74.6029C79.0763 74.6842 79.2172 74.7687 79.3712 74.8521C79.4974 75.3059 79.7275 75.7242 80.0436 76.0739C80.563 76.6371 81.6161 77.1925 82.3963 77.1541C82.4348 77.1516 82.4714 77.1363 82.5002 77.1107C82.529 77.0851 82.5484 77.0505 82.5552 77.0126C82.5621 76.9747 82.556 76.9356 82.5379 76.9016C82.5199 76.8675 82.491 76.8405 82.4557 76.8248L82.4172 76.8083C82.4271 76.7959 82.4337 76.7812 82.4363 76.7656C82.439 76.75 82.4376 76.734 82.4323 76.719C82.427 76.7041 82.418 76.6908 82.4061 76.6803C82.3942 76.6698 82.3799 76.6624 82.3644 76.659C82.3418 76.6494 82.3174 76.6445 82.2929 76.6447C82.2875 76.6438 82.2819 76.645 82.2774 76.648C82.2728 76.6511 82.2697 76.6558 82.2686 76.6612C82.2554 76.7095 81.8384 76.5053 81.7404 76.4417C81.5018 76.2634 81.2914 76.0502 81.1165 75.8094C81.0096 75.6741 80.9115 75.5322 80.8227 75.3845C81.4598 75.4943 82.1223 75.4262 82.6934 74.9729C82.809 74.8807 82.9311 74.7918 83.0588 74.7028C83.4741 74.6859 83.8867 74.627 84.2901 74.5272C85.2046 74.289 85.878 73.4975 86.2082 72.6457C86.2687 72.4881 86.3161 72.3258 86.3501 72.1605C86.9762 71.403 87.4824 70.426 87.7113 69.078C87.939 68.8302 88.1427 68.5615 88.3199 68.2755C88.8781 67.3331 89.044 66.21 88.782 65.147C88.7098 64.866 88.6197 64.5899 88.5124 64.3204C88.5278 64.069 88.5311 63.8154 88.5223 63.552C88.4838 62.4542 87.8544 61.5343 87.3801 60.5804C87.1142 60.0527 86.8983 59.5015 86.7353 58.9337C86.6648 58.6791 86.5581 58.3706 86.4811 58.0556C86.6582 58.1729 86.8156 58.3174 86.9476 58.4837C87.0444 58.6132 87.1597 58.7279 87.2899 58.824C87.399 59.0261 87.4532 59.2531 87.4472 59.4826C87.4178 59.7039 87.4767 59.9278 87.6112 60.1061C87.6364 60.1407 87.6701 60.1682 87.7089 60.186C87.7478 60.2039 87.7907 60.2116 87.8333 60.2083C87.876 60.205 87.9172 60.1908 87.9528 60.1672C87.9885 60.1435 88.0175 60.1112 88.0371 60.0732C88.2965 59.6188 88.3795 59.0852 88.2703 58.5737C88.4566 58.8506 88.7224 59.0649 89.0329 59.1884C89.702 59.4596 90.4228 59.3136 91.0291 58.9689C91.6894 58.5924 92.1427 57.8788 92.3496 57.1708C92.3967 57.0078 92.4233 56.8397 92.4288 56.6702C92.6495 56.2811 92.768 55.8427 92.7733 55.3957C92.795 54.9097 92.7584 54.4229 92.6643 53.9456C92.8358 53.5874 92.9245 53.1954 92.924 52.7985C92.924 52.7754 92.924 52.7535 92.924 52.7304C93.6052 51.6656 94.0597 50.4888 93.9936 49.1737C93.9736 48.7121 93.8503 48.2608 93.6329 47.8528C93.4154 47.4449 93.1093 47.0905 92.737 46.8158C92.5153 46.6601 92.2669 46.5462 92.0041 46.4798C91.9817 46.381 91.9538 46.2835 91.9204 46.1878C92.1482 45.5555 92.2979 44.8288 92.0217 44.3019C91.6486 43.5939 90.8794 43.5686 90.1741 43.6762C89.6459 43.3579 89.0406 43.2689 88.4288 43.3183C88.3019 43.1909 88.1591 43.0803 88.004 42.989C87.632 42.7813 87.2143 42.6683 86.788 42.66C86.3616 42.6518 85.9399 42.7486 85.56 42.9418C85.1099 43.1614 84.7567 43.5126 84.376 43.8343C84.1988 43.9836 84.0183 44.1296 83.84 44.2734C81.9572 42.4917 78.8882 40.3632 74.9541 40.3577H74.8606C75.3008 39.8769 75.6925 39.2918 75.8356 38.6804C75.9126 38.5618 75.9852 38.44 76.0557 38.3126C76.1844 38.0799 75.851 37.8922 75.6782 38.0711L75.6254 38.126C75.5942 38.1318 75.5652 38.1461 75.5415 38.1672C75.5179 38.1883 75.5005 38.2154 75.4911 38.2457C75.4856 38.2599 75.479 38.2731 75.4724 38.2874C75.1126 38.6793 74.7759 39.0986 74.3467 39.4148C73.8274 39.8015 73.2138 40.0426 72.5695 40.1129C71.3349 40.2227 70.131 39.8374 68.9106 39.878C67.8102 39.9142 66.6074 39.9746 65.7436 40.7101C65.3546 41.0401 65.0268 41.4358 64.7752 41.8792C64.5354 42.3018 64.0171 42.8672 63.9477 43.3359C63.7122 43.3677 63.4833 43.4029 63.2589 43.4457C62.2685 43.3754 61.2781 43.5763 60.3053 43.8014C59.995 43.8738 59.6759 43.9276 59.3546 43.9792L59.4393 43.8222C59.5824 43.5522 59.7463 43.2986 59.8795 43.022C59.9895 42.7881 60.0379 42.4731 60.2019 42.2678C60.2243 42.2412 60.2385 42.2087 60.2428 42.1742C60.2471 42.1397 60.2413 42.1048 60.2261 42.0735C60.2485 42.024 60.2518 41.9679 60.2351 41.9161C60.2185 41.8644 60.1833 41.8206 60.1362 41.7933C60.0891 41.766 60.0335 41.757 59.9802 41.7683C59.9268 41.7795 59.8796 41.81 59.8476 41.854C59.3216 42.5027 58.899 43.112 58.2211 43.6301C57.8635 43.9012 57.4882 44.1449 57.1207 44.393C56.5848 44.3283 56.0049 44.2657 55.5317 44.4238C54.965 44.6137 54.7504 45.0155 54.6404 45.5819C54.5862 45.826 54.5578 46.0751 54.5556 46.3251L54.5105 46.347C53.0469 47.1067 52.1105 48.8191 51.6373 50.3307C51.627 50.3634 51.6229 50.3976 51.6252 50.4317C51.4865 50.6167 51.3685 50.8162 51.2731 51.0267C50.6667 51.7172 50.2244 52.5098 49.7743 53.3177C49.1527 54.4099 48.672 55.5762 48.3437 56.7888C47.7682 58.9842 47.9157 61.6869 48.7839 63.8C49.0382 64.417 49.4092 64.9794 49.8766 65.4565C50.0461 65.8956 50.2794 66.3029 50.4213 66.7519C50.5726 67.2504 50.7998 67.7228 51.0948 68.1526C51.3325 68.4613 51.5945 68.7505 51.8783 69.0176C51.8007 69.1444 51.7305 69.2757 51.6681 69.4106C51.502 69.8212 50.6216 71.2208 52.2271 71.672C53.8326 72.1231 54.0571 71.7027 54.1496 72.1023C54.242 72.5019 53.1592 74.1605 53.9801 74.7511C54.801 75.3417 55.3677 75.2188 55.3985 75.3604C55.4294 75.502 54.6393 76.1595 55.053 76.8116C55.4668 77.4637 55.8871 77.3264 56.2261 78.0092C56.565 78.692 56.8181 78.4901 56.8247 79.8754C56.8313 81.2608 56.8038 82.9568 60.3163 82.9491C63.8289 82.9414 64.2459 80.4901 65.6501 81.4814C67.0542 82.4727 67.9522 84.4343 68.0897 85.0469C68.0897 85.0469 70.679 89.597 69.8251 91.5049C68.9712 93.4128 65.0669 95.5446 64.8523 98.2396C64.6377 100.935 65.5741 102.946 69.1439 104.66C73.5995 106.801 81.078 108.552 83.3394 108.679C90.9356 109.107 96.3199 103.934 89.1199 94.2888ZM84.4112 73.9772C84.2435 74.0596 84.067 74.1229 83.8852 74.166C84.3806 73.8623 84.8582 73.5306 85.3157 73.1726C85.0862 73.5119 84.7752 73.7885 84.4112 73.9772ZM88.3727 65.4006C88.5583 66.3604 88.3609 67.3545 87.8225 68.1713C87.8412 67.9012 87.8511 67.6224 87.85 67.3238C87.85 67.2689 87.85 67.214 87.85 67.1591C88.0779 66.5902 88.2529 66.0015 88.3727 65.4006ZM87.762 65.8155C87.6512 64.7679 87.4774 63.728 87.2415 62.7012C87.5512 63.24 87.8268 63.7977 88.0668 64.3709C88.0119 64.8609 87.9106 65.3446 87.7642 65.8155H87.762ZM86.524 59.6209C86.8816 60.7187 87.5837 61.6737 87.9325 62.7759C87.9901 62.9603 88.0313 63.1495 88.0558 63.3412C87.8412 62.9361 87.6046 62.542 87.3636 62.1523C87.2337 61.9438 87.1017 61.7396 86.9685 61.5354C86.7881 60.7944 86.6186 60.127 86.5042 59.5595C86.5097 59.5803 86.5174 59.6012 86.524 59.6209ZM91.0841 58.1533C90.8865 58.3518 90.6446 58.5008 90.3782 58.5882C90.1118 58.6756 89.8284 58.6988 89.5512 58.656C89.0329 58.5759 88.7655 58.2718 88.5785 57.8634C89.7064 57.9996 90.8123 57.9139 91.6068 57.4628C91.4667 57.7167 91.2906 57.9493 91.0841 58.1533ZM92.2605 52.7194C92.0025 52.1494 91.6277 51.6397 91.1601 51.2232L91.247 51.2342C92.0426 51.3439 92.2902 52.0103 92.2792 52.6909L92.2605 52.7194ZM92.6478 47.4031C93.3301 47.9914 93.4918 48.9399 93.4346 49.7884C93.3711 50.533 93.1458 51.2549 92.7744 51.9038C92.6951 51.6894 92.5728 51.4933 92.415 51.3276C92.2572 51.1619 92.0672 51.03 91.8566 50.94C91.5265 50.7973 91.1435 50.8061 90.7958 50.805H90.5548C90.468 50.7598 90.3787 50.7195 90.2874 50.6842C90.3391 50.6447 90.3898 50.6063 90.4382 50.5646C90.4874 50.5582 90.5363 50.549 90.5845 50.5371C91.2448 50.3823 91.6123 49.7303 91.8852 49.177C91.96 49.0244 92.0037 48.8585 92.0139 48.6889C92.0241 48.5194 92.0006 48.3495 91.9447 48.189C91.9821 48.0474 92.014 47.9036 92.0382 47.7565C92.078 47.5231 92.0942 47.2862 92.0866 47.0496C92.2915 47.1366 92.481 47.2559 92.6478 47.4031ZM91.6574 45.1055C91.6387 45.2504 91.6134 45.3942 91.5826 45.5369C91.3739 45.2491 91.1126 45.0033 90.8123 44.8124C90.7815 44.5144 90.6784 44.2285 90.5119 43.9792C91.1909 43.977 91.7631 44.2591 91.6618 45.1055H91.6574ZM90.0629 44.4787C89.7537 44.3911 89.439 44.3236 89.121 44.2767C89.315 44.1887 89.5184 44.1228 89.7273 44.0802C89.8784 44.1745 89.9958 44.314 90.0629 44.4787ZM89.2728 43.9056C89.1523 43.9506 89.0353 44.0045 88.9229 44.067C88.8911 43.9815 88.8544 43.8979 88.8129 43.8167C88.968 43.8336 89.1218 43.8619 89.2728 43.9012V43.9056ZM55.0761 45.2712C55.2731 44.7125 55.9267 44.6828 56.4946 44.7224C55.8521 45.0838 55.2934 45.5765 54.8549 46.1681C54.8959 45.862 54.9701 45.5613 55.0761 45.2712ZM52.3075 59.2751C52.042 59.6835 51.8073 60.1109 51.6054 60.554C51.5548 60.6638 51.5097 60.7834 51.4678 60.9031C51.4673 60.8951 51.4673 60.887 51.4678 60.879C51.4302 60.1082 51.4361 59.336 51.4854 58.566C51.7512 58.0795 52.0725 57.6254 52.4428 57.2125C52.3713 57.9293 52.3174 58.6275 52.3075 59.2751ZM50.9429 63.9329V63.923C50.6205 63.1941 50.67 62.2171 50.7229 61.4355C50.7405 61.1731 50.7658 60.913 50.8032 60.6539C50.8901 61.2961 50.9649 61.924 51.1025 62.5486C51.0728 62.7605 51.0486 62.968 51.0266 63.1688C50.9914 63.4235 50.9649 63.6782 50.9429 63.9329ZM52.3999 54.0653C52.4406 54.6021 52.5187 55.1828 52.6101 55.8513C52.2922 56.1325 51.9975 56.4386 51.7286 56.7668C51.8677 55.8474 52.0924 54.943 52.3999 54.0653ZM48.8224 61.0315C48.6823 59.8627 48.7302 58.6791 48.9644 57.5253C49.2021 56.4276 49.6422 55.3869 50.1594 54.3935C50.524 53.6657 50.941 52.9653 51.4073 52.2979C51.519 52.1847 51.6162 52.0583 51.6967 51.9214C51.7297 51.8807 51.7617 51.8379 51.7958 51.7973C52.0456 51.5065 52.3219 51.2393 52.6211 50.9993C52.2128 51.704 51.8189 52.4175 51.4612 53.1519C50.3762 55.3836 49.4904 57.5583 49.2978 60.0578C49.2166 61.183 49.2568 62.3135 49.4178 63.4301C49.4431 63.6068 49.4728 63.7814 49.5036 63.9559C49.0601 63.0657 48.927 62.0052 48.8224 61.0315ZM50.2607 65.0131C49.7391 63.305 49.7677 61.3148 49.9944 59.5968C50.1552 58.4653 50.4591 57.3588 50.8989 56.3036C50.8472 56.8008 50.8131 57.3014 50.7526 57.7767C50.7306 57.9491 50.7141 58.1225 50.7008 58.2971C50.5432 58.6012 50.42 58.9219 50.3333 59.2532C49.9074 60.9536 49.8656 63.103 50.779 64.6431C50.8164 64.7046 50.8549 64.7639 50.8945 64.822C50.8889 65.1101 50.9003 65.3982 50.9286 65.6849C50.7008 65.462 50.4742 65.2447 50.2607 65.0131ZM52.0896 68.6718C51.8761 68.4292 51.7055 68.2327 51.6769 68.1932C51.3977 67.8078 51.173 67.386 51.009 66.9396C50.9099 66.6838 50.8065 66.4324 50.7019 66.18C50.8433 66.2925 50.9775 66.4139 51.1036 66.5433C51.2353 66.965 51.4151 67.3701 51.6395 67.7508C51.8012 68.0082 52.0033 68.238 52.2381 68.4314L52.0896 68.6718ZM52.4065 68.168C52.2669 68.0206 52.1403 67.8616 52.028 67.6926C51.9194 67.5212 51.8241 67.3418 51.7429 67.1558C51.7705 67.1789 51.7969 67.203 51.8255 67.225C52.083 67.4237 52.3691 67.6059 52.6398 67.8046L52.4065 68.168ZM52.8401 67.4929C52.4318 67.1141 51.9707 66.7925 51.59 66.36C51.5361 66.2985 51.4799 66.2381 51.4238 66.1789C51.3864 66.0131 51.3556 65.8495 51.3303 65.6816C51.3116 65.5575 51.2984 65.4302 51.2885 65.3029C51.7385 65.776 52.291 66.1492 52.8225 66.5378C52.8962 66.5916 53.0657 66.7113 53.2626 66.8254C53.1592 66.9934 53.0073 67.2305 52.8401 67.4929ZM53.4178 66.5323C53.0865 66.3253 52.7713 66.0938 52.4747 65.8397C52.0019 65.4783 51.5947 65.0386 51.2709 64.5399C51.2836 64.1977 51.316 63.8565 51.3677 63.5179C51.5944 64.193 51.8739 64.8583 52.3757 65.3786C52.7154 65.7331 53.0924 66.05 53.5003 66.3238C53.4739 66.3973 53.4464 66.4687 53.4178 66.5323ZM53.6236 65.9143C53.4343 65.7376 53.2538 65.552 53.0557 65.383C52.3691 64.7979 52.1292 64.1085 51.8255 63.2973C51.7172 63.0023 51.638 62.6975 51.5889 62.3873C51.6923 61.9646 51.809 61.5541 51.941 61.1709C52.0429 60.8661 52.1744 60.572 52.3339 60.2928C52.3977 61.1172 52.5771 61.8022 52.9468 62.2489C53.8481 63.339 53.8062 63.5662 53.8062 63.5662C53.8062 63.5662 53.7303 63.979 52.7586 63.9032C52.5782 63.912 52.4076 63.9274 52.4065 63.9537C52.4054 63.9801 52.4417 63.9954 52.4417 63.9954L52.6552 64.0624C52.7652 64.0964 53.058 64.1239 53.7743 64.1107C53.7743 64.1107 53.9867 64.0602 53.9097 64.5432C53.8613 64.844 53.76 65.4126 53.6236 65.9143ZM64.575 43.1756C64.685 42.6476 64.8061 42.158 65.1417 41.6992C65.562 41.1273 66.1838 40.585 66.8859 40.4324C67.424 40.3149 68.0028 40.3072 68.5497 40.2776C69.2397 40.2414 69.8702 40.4126 70.5492 40.518C70.9881 40.5923 71.4307 40.6425 71.8752 40.6684C69.4388 41.1251 66.8804 42.0505 64.575 43.1756ZM88.124 43.8112C88.1991 43.9127 88.2608 44.0234 88.3078 44.1406C87.8918 44.0732 87.4714 44.0365 87.05 44.0308C87.3991 43.9182 87.7597 43.8446 88.1251 43.8112H88.124ZM85.3135 43.5599C86.0167 43.0823 86.7441 43.0242 87.5221 43.3502C87.5828 43.3763 87.642 43.406 87.6992 43.4391C87.1475 43.5766 86.6138 43.7782 86.1091 44.0396C86.0977 44.0452 86.087 44.0522 86.0772 44.0604C85.833 44.093 85.5963 44.1673 85.3773 44.28C85.0175 44.4611 84.6335 44.4194 84.2461 44.3766C84.588 44.0867 84.9442 43.8141 85.3135 43.5599ZM78.2708 74.1112C78.2708 74.1112 78.2961 74.1331 78.3401 74.1682C78.4009 74.5512 78.5459 74.916 78.7649 75.2363C78.5671 75.0708 78.3783 74.8949 78.1993 74.7094C78.1965 74.5079 78.2198 74.3068 78.2686 74.1112H78.2708Z" fill="#F23395"/>
<defs>
<filter id="filter0_dd" x="0" y="0" width="141" height="141" filterUnits="userSpaceOnUse" color-interpolation-filters="sRGB">
<feFlood flood-opacity="0" result="BackgroundImageFix"/>
<feColorMatrix in="SourceAlpha" type="matrix" values="0 0 0 0 0 0 0 0 0 0 0 0 0 0 0 0 0 0 127 0"/>
<feOffset dx="4" dy="4"/>
<feGaussianBlur stdDeviation="7.5"/>
<feColorMatrix type="matrix" values="0 0 0 0 0.211765 0 0 0 0 0.282353 0 0 0 0 0.623529 0 0 0 0.3 0"/>
<feBlend mode="normal" in2="BackgroundImageFix" result="effect1_dropShadow"/>
<feColorMatrix in="SourceAlpha" type="matrix" values="0 0 0 0 0 0 0 0 0 0 0 0 0 0 0 0 0 0 127 0"/>
<feOffset dx="-9" dy="-9"/>
<feGaussianBlur stdDeviation="7.5"/>
<feColorMatrix type="matrix" values="0 0 0 0 0.970833 0 0 0 0 0.44092 0 0 0 0 0.698716 0 0 0 1 0"/>
<feBlend mode="normal" in2="effect1_dropShadow" result="effect2_dropShadow"/>
<feBlend mode="normal" in="SourceGraphic" in2="effect2_dropShadow" result="shape"/>
</filter>
<linearGradient id="paint0_linear" x1="-39.7" y1="-133.208" x2="-74.927" y2="90.352" gradientUnits="userSpaceOnUse">
<stop stop-color="#F3F1FF"/>
<stop offset="1" stop-color="white"/>
</linearGradient>
</defs>
</svg>
