<svg width="141" height="141" viewBox="0 0 141 141" fill="none" xmlns="http://www.w3.org/2000/svg">
<g filter="url(#filter0_dd)">
<rect x="24" y="24" width="98" height="98" rx="30" fill="url(#paint0_linear)"/>
<rect x="25" y="25" width="96" height="96" rx="29" stroke="white" stroke-width="2"/>
</g>
<path d="M81.979 94.4449C81.5708 93.7207 81.1349 93.0181 80.5983 92.3794C80.3354 92.0697 80.2605 91.6718 80.0642 91.3378C80.0067 91.2426 80.0939 91.1602 80.1359 91.0765C80.3576 90.6282 80.5793 90.1811 80.801 89.7353C81.0891 89.2499 81.2389 88.7026 81.4636 88.1916C81.6948 87.6634 81.946 87.1365 82.3083 86.7054C83.1297 85.7288 83.4888 84.6246 83.4752 83.3766C83.471 82.8452 83.5534 82.3166 83.7193 81.8112C83.8821 81.3072 84.2999 81.1022 84.79 81.016C85.2708 80.9314 85.7584 80.9827 86.2363 81.0329L86.2644 81.0358C87.1469 81.1277 88.0374 81.1138 88.9166 80.9943C89.348 80.9387 89.7897 80.788 90.2372 80.9387C90.2897 80.9518 90.3451 80.9482 90.3954 80.9285C90.9476 80.7229 91.5772 80.772 92.0887 80.424C92.1392 80.3919 92.1869 80.3558 92.2314 80.316C92.4083 80.1423 92.6047 79.9813 92.7797 79.8166C92.9547 79.6518 93.1097 79.4136 93.2498 79.1919C93.6657 78.5341 93.7496 77.8609 93.4642 77.1137C93.2847 76.6429 93.2207 76.1263 93.1284 75.6262C93.0916 75.4263 93.1988 75.2238 93.2944 75.0603C93.4823 74.7346 93.5217 74.5027 93.5527 74.4452C93.6203 74.3076 93.7028 74.1776 93.7987 74.0576C93.9647 73.8577 94.0163 73.8851 94.057 73.774C94.0887 73.6967 94.0816 73.6354 93.9924 73.1615L93.9793 73.0922C93.9659 73.0219 93.8792 72.9575 93.9046 72.8907C93.9122 72.8712 93.9228 72.859 93.9354 72.8522C93.9911 72.8219 94.0645 72.8669 94.1201 72.8363C94.1745 72.8064 94.2241 72.7649 94.2811 72.7402C94.393 72.6916 94.4911 72.6157 94.5657 72.519C94.5742 72.508 94.5819 72.4967 94.5878 72.4842C94.5915 72.4765 94.596 72.466 94.6012 72.4523C94.7655 72.0202 94.6256 71.5407 94.5408 71.0863C94.5194 70.9721 94.5022 70.8571 94.4891 70.7415C94.4606 70.4771 94.4975 70.5595 94.4606 69.9489C94.4277 69.3958 94.389 69.231 94.5123 69.0848C94.5988 68.982 94.7525 68.9296 95.069 68.8657C95.2885 68.8197 95.512 68.7884 95.7335 68.7501C96.2863 68.6543 96.6983 68.3599 96.8817 67.8394C97.0702 67.2984 97.0606 66.751 96.6524 66.2765C96.3121 65.8818 95.9647 65.5018 95.5372 65.1792C95.1097 64.8567 94.7939 64.4467 94.5039 64.0085C94.026 63.2907 93.4926 62.6117 93.1349 61.8293C93.0779 61.7162 93.0278 61.5999 92.9849 61.481C92.9427 61.3641 92.8388 61.2596 92.8443 61.1354C92.8447 61.1273 92.8455 61.1192 92.8468 61.1111C92.8622 61.0133 92.898 60.9187 92.8952 60.8198C92.8945 60.7929 92.8967 60.766 92.9003 60.7393C92.9553 60.324 92.9091 59.8887 93.0967 59.502C93.3486 58.9827 93.3383 58.4252 93.4028 57.8772C93.4342 57.6788 93.4097 57.4757 93.3318 57.2902C93.1458 56.8531 93.0547 56.3823 93.0645 55.9081C93.0664 55.6814 92.9082 55.4585 92.8216 55.2343C92.624 54.7215 92.409 54.215 92.2333 53.6944C92.0047 53.0174 91.8149 52.3315 91.5947 51.6462C91.3806 50.9801 91.1117 50.3381 90.6918 49.769C90.6678 49.7365 90.6505 49.6995 90.6458 49.6594C90.6402 49.6116 90.6334 49.5643 90.5926 49.5377C90.5591 49.5159 90.5236 49.4916 90.5145 49.4527C90.5087 49.4275 90.4922 49.4065 90.4718 49.3907C90.3094 49.2653 90.2431 48.9801 90.2831 48.9663C90.2862 48.9653 90.2896 48.9653 90.2928 48.9663C90.3309 48.9842 90.3896 48.9803 90.5065 48.9727C90.6783 48.9612 90.6964 48.9267 90.761 48.9522C90.8209 48.9798 90.9014 48.9901 90.9359 48.9338C91.008 48.8159 91.0521 48.6776 91.1317 48.5658C91.2228 48.4379 91.4259 48.4765 91.5643 48.4023C91.698 48.3295 91.8659 48.2318 91.9795 48.3295C92.1042 48.44 92.1765 48.4042 92.2288 48.3123C92.2811 48.2203 92.3315 48.0779 92.2165 47.998C91.9843 47.8376 91.9333 47.6067 91.9061 47.3602C91.9033 47.3354 91.9075 47.3101 91.9175 47.2872C91.9308 47.2569 91.9548 47.2318 91.9854 47.2193C92.1931 47.1341 92.0959 47.3076 92.1045 47.3992C92.1095 47.4519 92.1832 47.4405 92.1976 47.3896C92.235 47.2568 92.3322 47.194 92.3989 47.3147L92.4071 47.33C92.4507 47.4146 92.5794 47.4484 92.6106 47.3585C92.6163 47.3421 92.6214 47.3255 92.626 47.3087C92.6553 47.2007 92.6604 47.0877 92.6409 46.9775C92.6214 46.8674 92.5778 46.7628 92.5131 46.6711C92.4483 46.5794 92.3641 46.5028 92.2663 46.4467C92.1332 46.3732 92.0467 46.3694 92.1978 46.2008C92.3223 46.0616 92.3355 45.6834 92.2798 45.4337C92.2617 45.3529 92.2717 45.2384 92.3505 45.2635C92.4432 45.2932 92.5698 45.2654 92.5053 45.1924C92.4598 45.1408 92.407 45.0951 92.3483 45.057C92.3389 45.0509 92.33 45.0441 92.3218 45.0364L92.2682 44.9862C92.1826 44.906 92.0796 44.8478 91.9774 44.7901L91.9741 44.7882C91.9409 44.7694 91.9092 44.7489 91.8792 44.7263C91.713 44.6009 91.5973 44.4144 91.4247 44.298C91.031 44.0325 90.5977 43.8609 90.121 43.7457C89.5088 43.5975 88.903 43.3957 88.2818 43.268C88.0435 43.2181 87.8872 43.0233 87.6728 42.9243C87.0529 42.6382 86.3651 42.5226 85.771 42.1733C85.6799 42.119 85.5811 42.0743 85.4862 42.0251C85.0445 41.7466 84.5505 41.624 84.0396 41.5454C83.7187 41.4963 83.4023 41.3947 83.0794 41.3832C82.4323 41.3602 81.8027 41.2152 81.1711 41.1098C80.9195 41.0713 80.6667 41.0413 80.4131 41.02C80.3049 41.0109 80.3056 40.8982 80.414 40.8918C80.5135 40.8858 80.5292 40.7647 80.4442 40.7126C80.3363 40.6463 80.2242 40.6036 80.0687 40.6302C79.8853 40.6615 79.6871 40.6085 79.4933 40.5874C79.1575 40.5516 78.8262 40.5267 78.5117 40.6979C78.3794 40.7733 78.2226 40.7948 78.0746 40.7579C78.0313 40.7471 77.9493 40.7662 77.9577 40.6941C77.9628 40.6482 77.9584 40.6176 77.9136 40.6284C77.4976 40.7285 77.1655 40.483 76.8049 40.3268C75.68 39.8389 74.5402 39.9551 73.4068 40.2981C73.0006 40.4213 72.5802 40.438 72.1689 40.4705C71.5754 40.5178 71.0982 40.7809 70.6261 41.0875C70.2696 41.2989 69.9422 41.5633 69.5515 41.707C69.1608 41.8507 68.7443 42.0174 68.2974 41.8897C68.218 41.8667 68.1069 41.8769 68.0694 41.9619C67.7995 42.575 67.1808 42.6535 66.6565 42.8771C66.5637 42.9164 66.4729 42.9609 66.3819 43.0046C66.3338 43.0277 66.2901 43.0593 66.2515 43.0962C66.226 43.1207 66.2037 43.1405 66.1838 43.1559C66.0647 43.2477 65.88 43.1425 65.7407 43.1992C65.6837 43.2225 65.6204 43.2324 65.5617 43.214C65.4085 43.1661 65.446 43.0812 65.5929 42.9595C65.8924 42.712 66.2199 42.5551 66.6355 42.561C66.7296 42.5623 66.7774 42.4621 66.6909 42.425C66.608 42.3894 66.5174 42.3744 66.4272 42.3815C66.0903 42.3987 65.7551 42.4401 65.4243 42.5054C64.9563 42.5857 64.6061 42.9788 64.416 43.414C64.3597 43.5428 64.3094 43.6749 64.2522 43.8032C64.25 43.8083 64.2414 43.8141 64.2348 43.8173C64.2304 43.8195 64.2254 43.8183 64.2215 43.8154C64.2077 43.8051 64.1868 43.8066 64.1783 43.8216C64.0356 44.0747 63.968 44.3628 63.9836 44.6526C63.99 44.7836 63.6032 45.0671 63.4779 45.025C63.084 44.8921 62.6952 44.7459 62.3013 44.6124C62.2032 44.5792 62.1108 44.3933 61.9952 44.5568C61.9018 44.6939 61.9032 44.838 62.0688 44.9285C62.0833 44.9364 62.1001 44.9387 62.1164 44.9364C62.164 44.9294 62.1847 44.8779 62.2091 44.8364C62.2231 44.8126 62.2526 44.805 62.3007 44.8231C62.4957 44.8979 62.6915 44.9742 62.8919 45.0528C63.1223 45.1431 63.1089 45.3877 62.877 45.3013C62.7985 45.2721 62.7216 45.2384 62.6439 45.2149C62.5955 45.2004 62.5496 45.2377 62.5479 45.2882C62.5471 45.3091 62.5544 45.3294 62.5662 45.3467C62.5928 45.3857 62.6183 45.4323 62.65 45.4369C63.1234 45.5065 62.8573 45.7741 62.8386 46.0117C62.8044 46.4416 62.5887 46.653 62.2154 46.8657C61.3281 47.3721 60.6662 48.1296 60.1405 48.9944C59.5303 50.0016 59.0123 51.0509 58.6552 52.1731C58.3052 53.2723 58.0017 54.381 57.8215 55.5249C57.7389 56.055 57.5845 56.5775 57.5141 57.112C57.4334 57.7213 57.5626 58.3319 57.6271 58.9348C57.7531 60.1151 57.7653 61.319 58.0882 62.4782C58.2529 63.0748 58.5151 63.6336 58.7921 64.1829C59.2674 65.1249 59.6523 66.0951 59.8202 67.1394C59.9578 67.9894 60.2671 68.7916 60.5131 69.6117C60.5733 69.8038 60.6905 69.9736 60.8496 70.099C61.1667 70.3366 61.1376 70.6649 61.2022 70.9714C61.2378 71.1382 61.2949 71.299 61.3717 71.4503C61.4541 71.6127 61.5585 71.5685 61.5478 71.3867C61.5408 71.2659 61.6841 71.2792 61.75 71.3807C61.773 71.416 61.7999 71.4492 61.8363 71.4754C61.9377 71.5482 62.0023 71.6555 61.9377 71.7787C61.848 71.9468 61.7016 71.9361 61.8372 72.0699C61.8751 72.1073 61.9146 72.1432 61.9543 72.1787C62.0917 72.3013 62.3173 72.2393 62.4553 72.3612C62.4772 72.3805 62.496 72.4108 62.5105 72.4564C62.5978 72.7181 62.5118 73.1338 62.5086 73.4096C62.5072 73.5227 62.4968 73.6362 62.495 73.7465C62.4821 74.6049 62.4453 75.4639 62.7198 76.2942C62.735 76.3666 62.763 76.4358 62.8024 76.4986C62.9355 76.6596 62.8741 76.7745 62.7243 76.8652C62.4615 77.0262 62.2742 77.2523 62.1076 77.5039C61.9762 77.7122 61.7876 77.8792 61.5638 77.9855C61.2035 78.1534 60.9994 78.4389 61.0097 78.8432C61.0214 79.1951 60.889 79.5266 60.8806 79.876C60.8748 80.1033 60.878 80.3275 61.0001 80.5242C61.0937 80.6762 61.033 80.751 60.9038 80.8276C60.2522 81.2217 59.9868 81.8354 59.91 82.552C59.9069 82.6788 59.8546 82.7995 59.764 82.8893C59.5782 83.0594 59.4354 83.2703 59.3472 83.5051C59.2591 83.7399 59.228 83.9919 59.2564 84.2407C59.2758 84.4413 59.2035 84.5332 59.0233 84.5914C58.8063 84.6597 58.5984 84.7421 58.3775 84.7964C57.7595 84.9477 57.3275 85.3903 56.9452 85.8374C55.5122 87.5229 54.1451 89.2601 53.106 91.2222C52.9659 91.4859 52.8212 91.7484 52.7076 92.0231C52.2206 93.2033 51.7253 94.3798 51.2733 95.5741C51.064 96.1292 49.8191 101.11 55.1661 104.153C60.5131 107.197 77.9577 101.11 81.1711 100.394C84.3845 99.6774 83.1222 96.342 82.8346 95.9216C82.5143 95.4483 82.2592 94.9399 81.979 94.4449Z" fill="url(#paint1_linear)"/>
<defs>
<filter id="filter0_dd" x="0" y="0" width="141" height="141" filterUnits="userSpaceOnUse" color-interpolation-filters="sRGB">
<feFlood flood-opacity="0" result="BackgroundImageFix"/>
<feColorMatrix in="SourceAlpha" type="matrix" values="0 0 0 0 0 0 0 0 0 0 0 0 0 0 0 0 0 0 127 0"/>
<feOffset dx="4" dy="4"/>
<feGaussianBlur stdDeviation="7.5"/>
<feColorMatrix type="matrix" values="0 0 0 0 0.106944 0 0 0 0 0.168611 0 0 0 0 0.466667 0 0 0 0.3 0"/>
<feBlend mode="normal" in2="BackgroundImageFix" result="effect1_dropShadow"/>
<feColorMatrix in="SourceAlpha" type="matrix" values="0 0 0 0 0 0 0 0 0 0 0 0 0 0 0 0 0 0 127 0"/>
<feOffset dx="-9" dy="-9"/>
<feGaussianBlur stdDeviation="7.5"/>
<feColorMatrix type="matrix" values="0 0 0 0 0.424875 0 0 0 0 0.362187 0 0 0 0 0.7125 0 0 0 1 0"/>
<feBlend mode="normal" in2="effect1_dropShadow" result="effect2_dropShadow"/>
<feBlend mode="normal" in="SourceGraphic" in2="effect2_dropShadow" result="shape"/>
</filter>
<linearGradient id="paint0_linear" x1="-39.7" y1="-133.208" x2="-74.927" y2="90.352" gradientUnits="userSpaceOnUse">
<stop stop-color="#F3F1FF"/>
<stop offset="1" stop-color="white"/>
</linearGradient>
<linearGradient id="paint1_linear" x1="66" y1="-28" x2="97" y2="193" gradientUnits="userSpaceOnUse">
<stop stop-color="#472C90"/>
<stop offset="1" stop-color="#3353A0"/>
</linearGradient>
</defs>
</svg>
